<svg width="18" height="17" viewBox="0 0 18 17" fill="none" xmlns="http://www.w3.org/2000/svg">
<path fill-rule="evenodd" clip-rule="evenodd" d="M17.3476 10.1478V16.5536H13.6069V10.5686C13.6069 9.07232 13.0926 8.04365 11.7366 8.04365C10.7079 8.04365 10.1001 8.74502 9.8195 9.39963C9.72599 9.63342 9.67923 9.96073 9.67923 10.288V16.5536H5.93857C5.93857 16.5536 5.98533 6.40712 5.93857 5.37844H9.67923V6.96822C9.67923 6.96822 9.67923 7.01497 9.63247 7.01497H9.67923V6.96822C10.1936 6.22009 11.0352 5.09789 13.0458 5.09789C15.4773 5.09789 17.3476 6.73443 17.3476 10.1478ZM2.10442 0.0012207C0.841951 0.0012207 0.000305176 0.842865 0.000305176 1.9183C0.000305176 2.99373 0.795195 3.83539 2.05766 3.83539H2.10442C3.41365 3.83539 4.20854 2.99374 4.20854 1.9183C4.16179 0.842865 3.36689 0.0012207 2.10442 0.0012207ZM0.187237 16.5536H3.88116V5.37843H0.187237V16.5536Z" fill="#18063C"/>
</svg>
